<?xml version="1.0" encoding="UTF-8"?><svg id="Layer_1" xmlns="http://www.w3.org/2000/svg" viewBox="0 0 1000 1000"><defs><style>.cls-1{fill:#ffca3a;}.cls-1,.cls-2,.cls-3,.cls-4{stroke-width:0px;}.cls-2{fill:#ff595e;}.cls-3{fill:#1982c4;}.cls-4{fill:#8ac926;}</style></defs><path class="cls-2" d="m770.38,692.57c-40.91-14.71-84.24-42.17-125.33-79.39-6.04-5.43-12.29-11.35-19.15-18.15-32.09-35.55-53.24-82.04-75.63-131.24l-.19-.41-.07-.15-.04-.1-.2-.47-.11-.25-.11-.25c-7.75-17.02-16.53-36.32-25.94-55.13l-.21-.41-.22-.41-1.15-2.1-.18-.33-.19-.33c-20.54-34.93-45.75-67.44-74.94-96.63-2.89-2.89-5.48-5.41-7.92-7.7-48.16-46.11-104.47-81.9-167.37-106.37l-23.09-8.98-8.97,23.1-25.62,65.95-8.96,23.08,23.07,8.97c47.62,18.52,90.28,45.51,126.79,80.21,24.53,23.31,45.48,49.43,62.28,77.65,7.98,16,15.68,32.95,23.13,49.34l.65,1.43c4.04,8.91,7.37,16.16,10.46,22.79,20.75,44.87,46.32,96.54,86.82,140.88l.19.21.2.21,1.1,1.15.19.2.2.2c7.13,7.13,14.44,14.13,21.74,20.8,53.43,48.89,111.54,85.49,168.04,105.85l23.31,8.4,8.39-23.31,23.97-66.6,8.39-23.31-23.31-8.38Z"/><path class="cls-4" d="m792.53,239.04l-65.95-25.62-23.08-8.96-8.97,23.07c-18.52,47.62-45.51,90.28-80.21,126.79-23.31,24.53-49.43,45.48-77.65,62.28-15.99,7.97-32.93,15.67-49.32,23.12l-1.45.66c-8.92,4.04-16.17,7.37-22.79,10.46-44.87,20.75-96.54,46.32-140.88,86.82l-.21.19-.21.2-1.15,1.1-.2.19-.2.2c-7.13,7.13-14.13,14.45-20.8,21.74-48.89,53.43-85.49,111.54-105.85,168.04l-8.4,23.31,23.31,8.39,66.6,23.97,23.31,8.39,8.38-23.31c14.71-40.9,42.17-84.24,79.39-125.33,5.43-6.04,11.35-12.29,18.15-19.15,35.55-32.09,82.04-53.24,131.24-75.64l.41-.19.14-.07.1-.04.48-.2.25-.11.25-.11c17.03-7.75,36.32-16.53,55.13-25.94l.41-.21.41-.22,2.1-1.15.33-.18.33-.19c34.93-20.54,67.44-45.75,96.63-74.94,2.9-2.9,5.42-5.49,7.71-7.92,46.11-48.16,81.9-104.47,106.37-167.37l8.98-23.09-23.1-8.97Z"/><path class="cls-1" d="m598.4,314.63c-1.45-66.65-15.96-131.78-43.13-193.56l-9.98-22.68-22.68,9.99-64.75,28.52-22.66,9.98,9.97,22.66c20.58,46.77,31.66,96.02,32.94,146.37.86,33.83-2.79,67.11-10.87,98.95-5.67,16.95-12.21,34.37-18.53,51.23l-.56,1.49c-3.45,9.18-6.23,16.66-8.72,23.51-17.05,46.4-35.51,101.01-38.23,161.01v.29s-.02.29-.02.29l-.04,1.59v.28s0,.28,0,.28c0,10.08.22,20.2.66,30.08,3.21,72.35,18.42,139.33,43.97,193.68l10.54,22.42,22.42-10.55,64.04-30.15,22.41-10.55-10.55-22.41c-18.52-39.33-29.75-89.39-32.49-144.76-.43-8.11-.67-16.72-.71-26.38,2.45-47.83,20.36-95.66,39.32-146.28l.16-.42.05-.15.04-.1.19-.48.1-.25.1-.26c6.56-17.52,14-37.38,20.65-57.32l.15-.44.13-.44.67-2.3.11-.36.1-.37c10.18-39.22,15.34-80.04,15.34-121.32,0-4.1-.05-7.72-.15-11.05Z"/><path class="cls-3" d="m891,522.3l-28.52-64.75-9.98-22.66-22.66,9.97c-46.77,20.58-96.02,31.66-146.37,32.94-3.21.08-6.47.12-9.68.12-30.49,0-60.52-3.7-89.27-10.99-16.95-5.67-34.37-12.21-51.23-18.53l-1.49-.56c-9.17-3.45-16.65-6.22-23.51-8.72-46.4-17.05-101.01-35.51-161.01-38.23h-.29s-.29-.02-.29-.02l-1.59-.04h-.27s-.28,0-.28,0c-10.08,0-20.2.22-30.08.66-72.35,3.21-139.33,18.42-193.68,43.98l-22.42,10.54,10.55,22.42,30.15,64.04,10.55,22.41,22.41-10.55c39.33-18.52,89.39-29.75,144.76-32.49,8.11-.43,16.71-.67,26.38-.71,47.83,2.45,95.66,20.36,146.28,39.32l.43.16.15.05.1.04.48.19.25.1.26.1c17.52,6.56,37.37,13.99,57.32,20.65l.44.15.44.13,2.3.67.36.11.37.1c39.22,10.18,80.04,15.34,121.32,15.34,4.1,0,7.72-.05,11.05-.15,66.66-1.45,131.78-15.96,193.56-43.13l22.68-9.98-9.99-22.68Z"/></svg>